<?xml version="1.0" encoding="UTF-8" standalone="no"?><!DOCTYPE svg PUBLIC "-//W3C//DTD SVG 1.1//EN" "http://www.w3.org/Graphics/SVG/1.1/DTD/svg11.dtd"><svg width="100%" height="100%" viewBox="0 0 1920 1080" version="1.1" xmlns="http://www.w3.org/2000/svg" xmlns:xlink="http://www.w3.org/1999/xlink" xml:space="preserve" xmlns:serif="http://www.serif.com/" style="fill-rule:evenodd;clip-rule:evenodd;stroke-linejoin:round;stroke-miterlimit:2;"><path d="M824.262,178.813c0,-49.569 56.341,-89.813 125.738,-89.813c69.397,0 125.738,40.244 125.738,89.813c34.699,-42.928 111.663,-57.658 171.762,-32.874c60.099,24.785 80.722,79.759 46.023,122.687c60.1,-24.784 137.064,-10.054 171.762,32.874c34.699,42.928 14.076,97.902 -46.023,122.687c69.397,0 125.738,40.244 125.738,89.813c0,49.569 -56.341,89.813 -125.738,89.813c60.099,24.785 80.722,79.759 46.023,122.687c-34.698,42.928 -111.662,57.658 -171.762,32.874c34.699,42.928 14.076,97.902 -46.023,122.687c-60.099,24.784 -137.063,10.054 -171.762,-32.874c0,49.569 -56.341,89.813 -125.738,89.813c-69.397,0 -125.738,-40.244 -125.738,-89.813c-34.699,42.928 -111.663,57.658 -171.762,32.874c-60.099,-24.785 -80.722,-79.759 -46.023,-122.687c-60.1,24.784 -137.064,10.054 -171.762,-32.874c-34.699,-42.928 -14.076,-97.902 46.023,-122.687c-69.397,0 -125.738,-40.244 -125.738,-89.813c0,-49.569 56.341,-89.813 125.738,-89.813c-60.099,-24.785 -80.722,-79.759 -46.023,-122.687c34.698,-42.928 111.662,-57.658 171.762,-32.874c-34.699,-42.928 -14.076,-97.902 46.023,-122.687c60.099,-24.784 137.063,-10.054 171.762,32.874Z" style="fill:#fff;"/><text x="709.641px" y="252.335px" style="font-family:'ArialMT', 'Arial', sans-serif;font-size:182.986px;">Cloud</text><text x="809px" y="657px" style="font-family:'ArialMT', 'Arial', sans-serif;font-size:496.993px;">9</text></svg>