<?xml version="1.0" encoding="UTF-8" standalone="no"?><!DOCTYPE svg PUBLIC "-//W3C//DTD SVG 1.1//EN" "http://www.w3.org/Graphics/SVG/1.1/DTD/svg11.dtd"><svg width="100%" height="100%" viewBox="0 0 1920 1080" version="1.1" xmlns="http://www.w3.org/2000/svg" xmlns:xlink="http://www.w3.org/1999/xlink" xml:space="preserve" xmlns:serif="http://www.serif.com/" style="fill-rule:evenodd;clip-rule:evenodd;stroke-linejoin:round;stroke-miterlimit:2;"><path d="M824.262,178.813c0,-49.569 56.341,-89.813 125.738,-89.813c69.397,0 125.738,40.244 125.738,89.813c34.699,-42.928 111.663,-57.658 171.762,-32.874c60.099,24.785 80.722,79.759 46.023,122.687c60.1,-24.784 137.064,-10.054 171.762,32.874c34.699,42.928 14.076,97.902 -46.023,122.687c69.397,0 125.738,40.244 125.738,89.813c0,49.569 -56.341,89.813 -125.738,89.813c60.099,24.785 80.722,79.759 46.023,122.687c-34.698,42.928 -111.662,57.658 -171.762,32.874c34.699,42.928 14.076,97.902 -46.023,122.687c-60.099,24.784 -137.063,10.054 -171.762,-32.874c0,49.569 -56.341,89.813 -125.738,89.813c-69.397,0 -125.738,-40.244 -125.738,-89.813c-34.699,42.928 -111.663,57.658 -171.762,32.874c-60.099,-24.785 -80.722,-79.759 -46.023,-122.687c-60.1,24.784 -137.064,10.054 -171.762,-32.874c-34.699,-42.928 -14.076,-97.902 46.023,-122.687c-69.397,0 -125.738,-40.244 -125.738,-89.813c0,-49.569 56.341,-89.813 125.738,-89.813c-60.099,-24.785 -80.722,-79.759 -46.023,-122.687c34.698,-42.928 111.662,-57.658 171.762,-32.874c-34.699,-42.928 -14.076,-97.902 46.023,-122.687c60.099,-24.784 137.063,-10.054 171.762,32.874Z" style="fill:#fff;"/><path d="M817.217,206.41l17.333,4.378c-3.633,14.236 -10.171,25.092 -19.612,32.568c-9.441,7.475 -20.982,11.213 -34.622,11.213c-14.117,0 -25.599,-2.874 -34.444,-8.622c-8.846,-5.748 -15.577,-14.073 -20.193,-24.973c-4.616,-10.901 -6.924,-22.605 -6.924,-35.114c0,-13.641 2.606,-25.539 7.818,-35.695c5.212,-10.156 12.628,-17.87 22.247,-23.141c9.62,-5.272 20.208,-7.907 31.764,-7.907c13.104,0 24.124,3.335 33.059,10.007c8.935,6.671 15.159,16.053 18.674,28.144l-17.066,4.021c-3.038,-9.53 -7.446,-16.47 -13.224,-20.818c-5.777,-4.348 -13.044,-6.523 -21.801,-6.523c-10.066,0 -18.48,2.413 -25.241,7.238c-6.76,4.824 -11.511,11.302 -14.251,19.433c-2.74,8.131 -4.11,16.515 -4.11,25.152c0,11.138 1.623,20.862 4.87,29.172c3.246,8.309 8.294,14.519 15.144,18.629c6.85,4.11 14.266,6.165 22.248,6.165c9.709,0 17.929,-2.8 24.66,-8.399c6.731,-5.599 11.288,-13.908 13.671,-24.928Z" style="fill-rule:nonzero;"/><rect x="853.492" y="121.35" width="16.083" height="130.985" style="fill-rule:nonzero;"/><path d="M888.517,204.891c0,-17.572 4.884,-30.587 14.653,-39.045c8.16,-7.029 18.108,-10.543 29.842,-10.543c13.045,0 23.708,4.274 31.987,12.821c8.28,8.548 12.42,20.357 12.42,35.427c0,12.211 -1.832,21.816 -5.495,28.815c-3.664,6.999 -8.995,12.434 -15.994,16.306c-6.999,3.872 -14.638,5.808 -22.918,5.808c-13.283,0 -24.019,-4.259 -32.21,-12.777c-8.19,-8.518 -12.285,-20.789 -12.285,-36.812Zm16.529,0c0,12.152 2.651,21.25 7.952,27.296c5.302,6.046 11.973,9.069 20.014,9.069c7.982,0 14.624,-3.038 19.925,-9.114c5.301,-6.075 7.952,-15.338 7.952,-27.787c0,-11.734 -2.665,-20.625 -7.997,-26.67c-5.331,-6.046 -11.957,-9.069 -19.88,-9.069c-8.041,0 -14.712,3.008 -20.014,9.024c-5.301,6.016 -7.952,15.1 -7.952,27.251Z" style="fill-rule:nonzero;"/><path d="M1058.46,252.335l0,-13.938c-7.386,10.722 -17.423,16.083 -30.111,16.083c-5.599,0 -10.826,-1.073 -15.68,-3.217c-4.855,-2.144 -8.459,-4.84 -10.812,-8.086c-2.352,-3.246 -4.005,-7.222 -4.958,-11.928c-0.656,-3.157 -0.983,-8.161 -0.983,-15.011l0,-58.791l16.082,0l0,52.626c0,8.399 0.328,14.058 0.983,16.977c1.013,4.229 3.157,7.55 6.433,9.962c3.277,2.412 7.327,3.619 12.152,3.619c4.825,0 9.352,-1.236 13.581,-3.708c4.229,-2.472 7.222,-5.838 8.979,-10.097c1.758,-4.259 2.636,-10.439 2.636,-18.54l0,-50.839l16.083,0l0,94.888l-14.385,0Z" style="fill-rule:nonzero;"/><path d="M1159.6,252.335l0,-11.972c-6.016,9.411 -14.861,14.117 -26.536,14.117c-7.565,0 -14.519,-2.085 -20.863,-6.255c-6.344,-4.169 -11.258,-9.992 -14.743,-17.467c-3.484,-7.476 -5.227,-16.068 -5.227,-25.777c0,-9.471 1.579,-18.064 4.736,-25.778c3.157,-7.713 7.892,-13.625 14.206,-17.735c6.314,-4.11 13.373,-6.165 21.176,-6.165c5.718,0 10.811,1.206 15.279,3.618c4.467,2.413 8.1,5.555 10.9,9.427l0,-46.998l15.993,0l0,130.985l-14.921,0Zm-50.839,-47.354c0,12.151 2.561,21.235 7.684,27.251c5.123,6.016 11.168,9.024 18.138,9.024c7.028,0 13,-2.874 17.914,-8.622c4.914,-5.748 7.371,-14.519 7.371,-26.313c0,-12.986 -2.501,-22.516 -7.505,-28.592c-5.003,-6.075 -11.169,-9.113 -18.495,-9.113c-7.148,0 -13.119,2.918 -17.914,8.756c-4.796,5.837 -7.193,15.04 -7.193,27.609Z" style="fill-rule:nonzero;"/><path d="M836.179,574.734l41.983,-3.883c3.559,19.738 10.354,34.055 20.384,42.953c10.03,8.898 22.892,13.347 38.585,13.347c13.428,0 25.197,-3.074 35.309,-9.221c10.111,-6.148 18.402,-14.358 24.874,-24.631c6.471,-10.274 11.89,-24.146 16.259,-41.619c4.368,-17.472 6.552,-35.268 6.552,-53.388c0,-1.941 -0.081,-4.853 -0.243,-8.736c-8.736,13.913 -20.668,25.198 -35.794,33.853c-15.127,8.655 -31.507,12.983 -49.141,12.983c-29.444,0 -54.359,-10.678 -74.743,-32.033c-20.385,-21.355 -30.577,-49.505 -30.577,-84.45c0,-36.077 10.637,-65.117 31.912,-87.119c21.274,-22.002 47.927,-33.003 79.96,-33.003c23.135,0 44.288,6.228 63.459,18.685c19.171,12.458 33.731,30.213 43.681,53.267c9.949,23.054 14.924,56.421 14.924,100.102c0,45.461 -4.934,81.659 -14.803,108.596c-9.869,26.937 -24.55,47.442 -44.045,61.517c-19.495,14.075 -42.346,21.113 -68.555,21.113c-27.826,0 -50.556,-7.725 -68.191,-23.175c-17.634,-15.451 -28.231,-37.17 -31.79,-65.158Zm178.85,-157.009c0,-25.076 -6.674,-44.975 -20.021,-59.697c-13.347,-14.722 -29.404,-22.083 -48.17,-22.083c-19.414,0 -36.32,7.927 -50.719,23.782c-14.398,15.854 -21.598,36.4 -21.598,61.638c0,22.65 6.836,41.052 20.506,55.208c13.671,14.156 30.537,21.234 50.597,21.234c20.223,0 36.846,-7.078 49.87,-21.234c13.023,-14.156 19.535,-33.772 19.535,-58.848Z" style="fill-rule:nonzero;"/></svg>